<mxfile host="Electron" modified="2024-01-11T11:39:34.425Z" agent="Mozilla/5.0 (X11; Linux x86_64) AppleWebKit/537.36 (KHTML, like Gecko) draw.io/22.1.2 Chrome/120.0.6099.109 Electron/28.1.0 Safari/537.36" etag="Iic5QV2kGB3HlVUuAaiQ" version="22.1.2" type="device">
  <diagram name="Page-1" id="iipwh64n65vx4WovocLg">
    <mxGraphModel dx="1474" dy="848" grid="1" gridSize="10" guides="1" tooltips="1" connect="1" arrows="1" fold="1" page="1" pageScale="1" pageWidth="1169" pageHeight="827" math="0" shadow="0">
      <root>
        <mxCell id="0" />
        <mxCell id="1" parent="0" />
        <mxCell id="yRzJGyd7bDUnVyytgLMS-36" value="&lt;br&gt;" style="rounded=1;whiteSpace=wrap;html=1;fillColor=#008a00;fontColor=#ffffff;strokeColor=#005700;gradientColor=none;shadow=0;opacity=50;" vertex="1" parent="1">
          <mxGeometry x="250" y="570" width="160" height="40" as="geometry" />
        </mxCell>
        <mxCell id="yRzJGyd7bDUnVyytgLMS-12" value="&lt;br&gt;" style="rounded=1;whiteSpace=wrap;html=1;fillColor=#008a00;fontColor=#ffffff;strokeColor=#005700;gradientColor=none;shadow=0;opacity=50;" vertex="1" parent="1">
          <mxGeometry x="250" y="490" width="160" height="40" as="geometry" />
        </mxCell>
        <mxCell id="yRzJGyd7bDUnVyytgLMS-10" value="&lt;br&gt;" style="rounded=1;whiteSpace=wrap;html=1;fillColor=#008a00;fontColor=#ffffff;strokeColor=#005700;gradientColor=none;shadow=0;opacity=50;" vertex="1" parent="1">
          <mxGeometry x="1000" y="450" width="160" height="40" as="geometry" />
        </mxCell>
        <mxCell id="yRzJGyd7bDUnVyytgLMS-6" value="Legend" style="rounded=0;whiteSpace=wrap;html=1;dashed=1;fillColor=none;verticalAlign=top;" vertex="1" parent="1">
          <mxGeometry x="20" y="20" width="160" height="80" as="geometry" />
        </mxCell>
        <mxCell id="yRzJGyd7bDUnVyytgLMS-2" value="Smart Contract&lt;br&gt;Instance" style="rounded=1;whiteSpace=wrap;html=1;fillColor=#008a00;fontColor=#ffffff;strokeColor=#005700;" vertex="1" parent="1">
          <mxGeometry x="40" y="40" width="120" height="40" as="geometry" />
        </mxCell>
        <mxCell id="yRzJGyd7bDUnVyytgLMS-3" value="«UUPS Proxy»&lt;br&gt;ConstantFlowAgreementV1" style="rounded=1;whiteSpace=wrap;html=1;fillColor=#008a00;fontColor=#ffffff;strokeColor=#005700;" vertex="1" parent="1">
          <mxGeometry x="720" y="360" width="200" height="40" as="geometry" />
        </mxCell>
        <mxCell id="yRzJGyd7bDUnVyytgLMS-4" value="«UUPS Proxy»&lt;br&gt;InstantDistributionAgreementV1" style="rounded=1;whiteSpace=wrap;html=1;fillColor=#008a00;fontColor=#ffffff;strokeColor=#005700;" vertex="1" parent="1">
          <mxGeometry x="720" y="400" width="200" height="40" as="geometry" />
        </mxCell>
        <mxCell id="yRzJGyd7bDUnVyytgLMS-18" value="owns (Ownable)" style="edgeStyle=orthogonalEdgeStyle;rounded=0;orthogonalLoop=1;jettySize=auto;html=1;entryX=0.5;entryY=0;entryDx=0;entryDy=0;exitX=0.5;exitY=0;exitDx=0;exitDy=0;" edge="1" parent="1" source="yRzJGyd7bDUnVyytgLMS-5" target="yRzJGyd7bDUnVyytgLMS-9">
          <mxGeometry x="-0.125" relative="1" as="geometry">
            <Array as="points">
              <mxPoint x="560" y="280" />
              <mxPoint x="1000" y="280" />
            </Array>
            <mxPoint as="offset" />
          </mxGeometry>
        </mxCell>
        <mxCell id="yRzJGyd7bDUnVyytgLMS-37" value="admins&lt;br&gt;(as proxy)" style="edgeStyle=orthogonalEdgeStyle;rounded=0;orthogonalLoop=1;jettySize=auto;html=1;entryX=1;entryY=0.5;entryDx=0;entryDy=0;exitX=0;exitY=0.5;exitDx=0;exitDy=0;" edge="1" parent="1" source="yRzJGyd7bDUnVyytgLMS-5" target="yRzJGyd7bDUnVyytgLMS-11">
          <mxGeometry relative="1" as="geometry" />
        </mxCell>
        <mxCell id="yRzJGyd7bDUnVyytgLMS-38" value="admins&lt;br&gt;(as proxy)" style="edgeStyle=orthogonalEdgeStyle;rounded=0;orthogonalLoop=1;jettySize=auto;html=1;entryX=0.5;entryY=0;entryDx=0;entryDy=0;" edge="1" parent="1" source="yRzJGyd7bDUnVyytgLMS-5" target="yRzJGyd7bDUnVyytgLMS-27">
          <mxGeometry relative="1" as="geometry">
            <mxPoint as="offset" />
          </mxGeometry>
        </mxCell>
        <mxCell id="yRzJGyd7bDUnVyytgLMS-5" value="«UUPS Proxy»&lt;br&gt;Superfluid (host contract)" style="rounded=1;whiteSpace=wrap;html=1;fillColor=#008a00;fontColor=#ffffff;strokeColor=#005700;" vertex="1" parent="1">
          <mxGeometry x="480" y="360" width="160" height="40" as="geometry" />
        </mxCell>
        <mxCell id="yRzJGyd7bDUnVyytgLMS-7" value="«UUPS Proxy»&lt;br&gt;SuperfluidGovernanceII" style="rounded=1;whiteSpace=wrap;html=1;fillColor=#e51400;fontColor=#FFD966;strokeColor=#B20000;" vertex="1" parent="1">
          <mxGeometry x="720" y="560" width="200" height="80" as="geometry" />
        </mxCell>
        <mxCell id="yRzJGyd7bDUnVyytgLMS-51" value="creates&lt;br&gt;(as factory)" style="edgeStyle=orthogonalEdgeStyle;rounded=0;orthogonalLoop=1;jettySize=auto;html=1;entryX=0;entryY=0.5;entryDx=0;entryDy=0;labelBackgroundColor=none;" edge="1" parent="1" source="yRzJGyd7bDUnVyytgLMS-8" target="yRzJGyd7bDUnVyytgLMS-9">
          <mxGeometry relative="1" as="geometry" />
        </mxCell>
        <mxCell id="yRzJGyd7bDUnVyytgLMS-8" value="«UUPS Proxy»&lt;br&gt;GeneralDistributionAgreementV1" style="rounded=1;whiteSpace=wrap;html=1;fillColor=#008a00;fontColor=#ffffff;strokeColor=#005700;" vertex="1" parent="1">
          <mxGeometry x="720" y="440" width="200" height="40" as="geometry" />
        </mxCell>
        <mxCell id="yRzJGyd7bDUnVyytgLMS-9" value="«Beacon Proxy»&lt;br&gt;SuperfluidPool" style="rounded=1;whiteSpace=wrap;html=1;fillColor=#008a00;fontColor=#ffffff;strokeColor=#005700;gradientColor=none;shadow=0;" vertex="1" parent="1">
          <mxGeometry x="990" y="440" width="160" height="40" as="geometry" />
        </mxCell>
        <mxCell id="yRzJGyd7bDUnVyytgLMS-23" value="link" style="edgeStyle=orthogonalEdgeStyle;rounded=0;orthogonalLoop=1;jettySize=auto;html=1;entryX=0;entryY=0.5;entryDx=0;entryDy=0;exitX=0;exitY=0.5;exitDx=0;exitDy=0;" edge="1" parent="1" source="yRzJGyd7bDUnVyytgLMS-11" target="yRzJGyd7bDUnVyytgLMS-25">
          <mxGeometry relative="1" as="geometry">
            <Array as="points">
              <mxPoint x="190" y="500" />
              <mxPoint x="190" y="350" />
            </Array>
          </mxGeometry>
        </mxCell>
        <mxCell id="yRzJGyd7bDUnVyytgLMS-11" value="&lt;div&gt;«UUPS Proxy | EIP-1967»&lt;/div&gt;SuperToken" style="rounded=1;whiteSpace=wrap;html=1;fillColor=#008a00;fontColor=#ffffff;strokeColor=#005700;" vertex="1" parent="1">
          <mxGeometry x="240" y="480" width="160" height="40" as="geometry" />
        </mxCell>
        <mxCell id="yRzJGyd7bDUnVyytgLMS-15" value="&amp;nbsp;«Immutable»&lt;br&gt;CFAv1Forwarder" style="rounded=1;whiteSpace=wrap;html=1;fillColor=#008a00;fontColor=#ffffff;strokeColor=#005700;" vertex="1" parent="1">
          <mxGeometry x="40" y="360" width="120" height="40" as="geometry" />
        </mxCell>
        <mxCell id="yRzJGyd7bDUnVyytgLMS-16" value="&amp;nbsp;«Immutable»&lt;br&gt;IDAv1Forwarder" style="rounded=1;whiteSpace=wrap;html=1;fillColor=#008a00;fontColor=#ffffff;strokeColor=#005700;" vertex="1" parent="1">
          <mxGeometry x="40" y="400" width="120" height="40" as="geometry" />
        </mxCell>
        <mxCell id="yRzJGyd7bDUnVyytgLMS-17" value="&amp;nbsp;«Immutable»&lt;br&gt;GDAv1Forwarder" style="rounded=1;whiteSpace=wrap;html=1;fillColor=#008a00;fontColor=#ffffff;strokeColor=#005700;" vertex="1" parent="1">
          <mxGeometry x="40" y="440" width="120" height="40" as="geometry" />
        </mxCell>
        <mxCell id="yRzJGyd7bDUnVyytgLMS-19" value="«UUPS Proxy»&lt;br&gt;ConstantOutflowNFT" style="rounded=1;whiteSpace=wrap;html=1;fillColor=#008a00;fontColor=#ffffff;strokeColor=#005700;" vertex="1" parent="1">
          <mxGeometry x="240" y="280" width="160" height="40" as="geometry" />
        </mxCell>
        <mxCell id="yRzJGyd7bDUnVyytgLMS-20" value="«UUPS Proxy»&lt;br&gt;ConstantInflowNFT" style="rounded=1;whiteSpace=wrap;html=1;fillColor=#008a00;fontColor=#ffffff;strokeColor=#005700;" vertex="1" parent="1">
          <mxGeometry x="240" y="320" width="160" height="40" as="geometry" />
        </mxCell>
        <mxCell id="yRzJGyd7bDUnVyytgLMS-21" value="«UUPS Proxy»&lt;br&gt;PoolAdminNFT" style="rounded=1;whiteSpace=wrap;html=1;fillColor=#008a00;fontColor=#ffffff;strokeColor=#005700;" vertex="1" parent="1">
          <mxGeometry x="240" y="360" width="160" height="40" as="geometry" />
        </mxCell>
        <mxCell id="yRzJGyd7bDUnVyytgLMS-22" value="«UUPS Proxy»&lt;br&gt;PoolMemberNFT" style="rounded=1;whiteSpace=wrap;html=1;fillColor=#008a00;fontColor=#ffffff;strokeColor=#005700;" vertex="1" parent="1">
          <mxGeometry x="240" y="400" width="160" height="40" as="geometry" />
        </mxCell>
        <mxCell id="yRzJGyd7bDUnVyytgLMS-25" value="Existential NFTs" style="rounded=0;whiteSpace=wrap;html=1;dashed=1;fillColor=none;verticalAlign=top;" vertex="1" parent="1">
          <mxGeometry x="220" y="240" width="200" height="220" as="geometry" />
        </mxCell>
        <mxCell id="yRzJGyd7bDUnVyytgLMS-34" value="creates&lt;br&gt;(as factory)" style="edgeStyle=orthogonalEdgeStyle;rounded=0;orthogonalLoop=1;jettySize=auto;html=1;exitX=0.5;exitY=1;exitDx=0;exitDy=0;labelBackgroundColor=none;" edge="1" parent="1">
          <mxGeometry relative="1" as="geometry">
            <mxPoint x="560" y="510" as="sourcePoint" />
            <mxPoint x="320" y="520" as="targetPoint" />
            <Array as="points">
              <mxPoint x="560" y="540" />
              <mxPoint x="320" y="540" />
            </Array>
          </mxGeometry>
        </mxCell>
        <mxCell id="yRzJGyd7bDUnVyytgLMS-27" value="«UUPS Proxy»&lt;br&gt;SuperTokenFactory" style="rounded=1;whiteSpace=wrap;html=1;fillColor=#008a00;fontColor=#ffffff;strokeColor=#005700;" vertex="1" parent="1">
          <mxGeometry x="480" y="480" width="160" height="40" as="geometry" />
        </mxCell>
        <mxCell id="yRzJGyd7bDUnVyytgLMS-29" value="&amp;nbsp;«Immutable»&lt;br&gt;Resolver" style="rounded=1;whiteSpace=wrap;html=1;fillColor=#008a00;fontColor=#ffffff;strokeColor=#005700;" vertex="1" parent="1">
          <mxGeometry x="40" y="280" width="120" height="40" as="geometry" />
        </mxCell>
        <mxCell id="yRzJGyd7bDUnVyytgLMS-30" value="«Immutable»&lt;br&gt;TOGA" style="rounded=1;whiteSpace=wrap;html=1;fillColor=#008a00;fontColor=#ffffff;strokeColor=#005700;" vertex="1" parent="1">
          <mxGeometry x="40" y="520" width="120" height="40" as="geometry" />
        </mxCell>
        <mxCell id="yRzJGyd7bDUnVyytgLMS-33" value="" style="shape=image;verticalLabelPosition=bottom;labelBackgroundColor=default;verticalAlign=top;aspect=fixed;imageAspect=0;image=https://www.worldatlas.com/img/flag/vn-flag.jpg;" vertex="1" parent="1">
          <mxGeometry x="730" y="570" width="29.85" height="20" as="geometry" />
        </mxCell>
        <mxCell id="yRzJGyd7bDUnVyytgLMS-35" value="&lt;div&gt;&lt;/div&gt;Unmanaged&lt;br&gt;SuperTokens" style="rounded=1;whiteSpace=wrap;html=1;fillColor=#008a00;fontColor=#ffffff;strokeColor=#005700;" vertex="1" parent="1">
          <mxGeometry x="240" y="560" width="160" height="40" as="geometry" />
        </mxCell>
        <mxCell id="yRzJGyd7bDUnVyytgLMS-41" style="edgeStyle=orthogonalEdgeStyle;rounded=0;orthogonalLoop=1;jettySize=auto;html=1;entryX=0;entryY=0.75;entryDx=0;entryDy=0;dashed=1;dashPattern=1 2;endArrow=none;endFill=0;exitX=1.041;exitY=0.675;exitDx=0;exitDy=0;exitPerimeter=0;" edge="1" parent="1" source="yRzJGyd7bDUnVyytgLMS-45" target="yRzJGyd7bDUnVyytgLMS-11">
          <mxGeometry relative="1" as="geometry" />
        </mxCell>
        <mxCell id="yRzJGyd7bDUnVyytgLMS-44" style="edgeStyle=orthogonalEdgeStyle;rounded=0;orthogonalLoop=1;jettySize=auto;html=1;entryX=0.5;entryY=1;entryDx=0;entryDy=0;endArrow=none;endFill=0;dashed=1;dashPattern=1 4;" edge="1" parent="1" source="yRzJGyd7bDUnVyytgLMS-43" target="yRzJGyd7bDUnVyytgLMS-7">
          <mxGeometry relative="1" as="geometry" />
        </mxCell>
        <mxCell id="yRzJGyd7bDUnVyytgLMS-43" value="&lt;div style=&quot;font-size: 9px;&quot;&gt;&lt;font face=&quot;Lucida Console&quot; style=&quot;font-size: 9px;&quot;&gt;&amp;nbsp; &amp;nbsp; function updateContracts(&lt;/font&gt;&lt;/div&gt;&lt;div style=&quot;font-size: 9px;&quot;&gt;&lt;font face=&quot;Lucida Console&quot; style=&quot;font-size: 9px;&quot;&gt;&amp;nbsp; &amp;nbsp; &amp;nbsp; &amp;nbsp; ISuperfluid host,&lt;/font&gt;&lt;/div&gt;&lt;div style=&quot;font-size: 9px;&quot;&gt;&lt;font face=&quot;Lucida Console&quot; style=&quot;font-size: 9px;&quot;&gt;&amp;nbsp; &amp;nbsp; &amp;nbsp; &amp;nbsp; address hostNewLogic,&lt;/font&gt;&lt;/div&gt;&lt;div style=&quot;font-size: 9px;&quot;&gt;&lt;font face=&quot;Lucida Console&quot; style=&quot;font-size: 9px;&quot;&gt;&amp;nbsp; &amp;nbsp; &amp;nbsp; &amp;nbsp; address[] calldata agreementClassNewLogics,&lt;/font&gt;&lt;/div&gt;&lt;div style=&quot;font-size: 9px;&quot;&gt;&lt;font face=&quot;Lucida Console&quot; style=&quot;font-size: 9px;&quot;&gt;&amp;nbsp; &amp;nbsp; &amp;nbsp; &amp;nbsp; address superTokenFactoryNewLogic,&lt;/font&gt;&lt;/div&gt;&lt;div style=&quot;font-size: 9px;&quot;&gt;&lt;font face=&quot;Lucida Console&quot; style=&quot;font-size: 9px;&quot;&gt;&amp;nbsp; &amp;nbsp; &amp;nbsp; &amp;nbsp; address poolBeaconNewLogic&lt;/font&gt;&lt;/div&gt;&lt;div style=&quot;font-size: 9px;&quot;&gt;&lt;font face=&quot;Lucida Console&quot; style=&quot;font-size: 9px;&quot;&gt;&amp;nbsp; &amp;nbsp; )&lt;/font&gt;&lt;/div&gt;" style="shape=note;whiteSpace=wrap;html=1;backgroundOutline=1;darkOpacity=0.05;align=left;fontSize=9;" vertex="1" parent="1">
          <mxGeometry x="400" y="640" width="240" height="80" as="geometry" />
        </mxCell>
        <mxCell id="yRzJGyd7bDUnVyytgLMS-45" value="&lt;div style=&quot;&quot;&gt;&lt;font face=&quot;Lucida Console&quot;&gt;SuperToken.changeAdmin() can override the the proxy admin through the devolution process of SuperfluidGovernanceII.&lt;/font&gt;&lt;br&gt;&lt;/div&gt;" style="shape=note;whiteSpace=wrap;html=1;backgroundOutline=1;darkOpacity=0.05;align=left;" vertex="1" parent="1">
          <mxGeometry x="40" y="640" width="160" height="120" as="geometry" />
        </mxCell>
        <mxCell id="yRzJGyd7bDUnVyytgLMS-47" value="multisig" style="edgeStyle=orthogonalEdgeStyle;rounded=0;orthogonalLoop=1;jettySize=auto;html=1;entryX=1;entryY=0.5;entryDx=0;entryDy=0;endArrow=classic;endFill=1;" edge="1" parent="1" source="yRzJGyd7bDUnVyytgLMS-46" target="yRzJGyd7bDUnVyytgLMS-7">
          <mxGeometry relative="1" as="geometry">
            <Array as="points">
              <mxPoint x="940" y="600" />
              <mxPoint x="940" y="600" />
            </Array>
          </mxGeometry>
        </mxCell>
        <mxCell id="yRzJGyd7bDUnVyytgLMS-46" value="" style="shape=image;verticalLabelPosition=bottom;labelBackgroundColor=default;verticalAlign=top;aspect=fixed;imageAspect=0;image=https://www.pngall.com/wp-content/uploads/2017/03/Winnie-The-Pooh-PNG-Clipart.png;" vertex="1" parent="1">
          <mxGeometry x="1040" y="560" width="80" height="80" as="geometry" />
        </mxCell>
        <mxCell id="yRzJGyd7bDUnVyytgLMS-48" value="&lt;div style=&quot;font-size: 9px;&quot;&gt;&lt;div&gt;function batchUpdateSuperTokenLogic(&lt;/div&gt;&lt;div&gt;&amp;nbsp; &amp;nbsp; ISuperfluid host,&lt;/div&gt;&lt;div&gt;&amp;nbsp; &amp;nbsp; ISuperToken[] calldata tokens,&lt;/div&gt;&lt;div&gt;&amp;nbsp; &amp;nbsp; address[] calldata tokenLogics&lt;/div&gt;&lt;div&gt;)&lt;/div&gt;&lt;/div&gt;" style="shape=note;whiteSpace=wrap;html=1;backgroundOutline=1;darkOpacity=0.05;align=left;fontSize=9;" vertex="1" parent="1">
          <mxGeometry x="400" y="720" width="240" height="80" as="geometry" />
        </mxCell>
        <mxCell id="yRzJGyd7bDUnVyytgLMS-49" style="edgeStyle=orthogonalEdgeStyle;rounded=0;orthogonalLoop=1;jettySize=auto;html=1;entryX=0.5;entryY=1;entryDx=0;entryDy=0;endArrow=none;endFill=0;dashed=1;dashPattern=1 4;exitX=0;exitY=0;exitDx=240;exitDy=55;exitPerimeter=0;" edge="1" parent="1" source="yRzJGyd7bDUnVyytgLMS-48" target="yRzJGyd7bDUnVyytgLMS-7">
          <mxGeometry relative="1" as="geometry">
            <mxPoint x="650" y="690" as="sourcePoint" />
            <mxPoint x="830" y="650" as="targetPoint" />
          </mxGeometry>
        </mxCell>
        <mxCell id="yRzJGyd7bDUnVyytgLMS-50" value="&lt;h1&gt;References&amp;nbsp;&lt;/h1&gt;* code as doc: contracts/utils/SuperfluidFrameworkDeploymentSteps.sol" style="text;html=1;strokeColor=none;fillColor=none;spacing=5;spacingTop=-20;whiteSpace=wrap;overflow=hidden;rounded=0;" vertex="1" parent="1">
          <mxGeometry x="640" y="40" width="520" height="120" as="geometry" />
        </mxCell>
      </root>
    </mxGraphModel>
  </diagram>
</mxfile>
